HIERARCHY
ROOT Hips
{
  OFFSET 0.00 0.00 0.00
  CHANNELS 6 Xposition Yposition Zposition Zrotation Xrotation Yrotation
  JOINT Spine
  {
    OFFSET 0.00 12.00 0.00
    CHANNELS 3 Zrotation Xrotation Yrotation
    JOINT Chest
    {
      OFFSET 0.00 14.00 0.00
      CHANNELS 3 Zrotation Xrotation Yrotation
      JOINT Neck
      {
        OFFSET 0.00 18.00 0.00
        CHANNELS 3 Zrotation Xrotation Yrotation
        JOINT Head
        {
          OFFSET 0.00 8.00 0.00
          CHANNELS 3 Zrotation Xrotation Yrotation
          End Site
          {
            OFFSET 0.00 10.00 0.00
          }
        }
      }
      JOINT LeftUpperArm
      {
        OFFSET 8.00 14.00 0.00
        CHANNELS 3 Zrotation Xrotation Yrotation
        JOINT LeftForearm
        {
          OFFSET 0.00 -26.00 0.00
          CHANNELS 3 Zrotation Xrotation Yrotation
          JOINT LeftHand
          {
            OFFSET 0.00 -24.00 0.00
            CHANNELS 3 Zrotation Xrotation Yrotation
            End Site
            {
              OFFSET 0.00 -8.00 0.00
            }
          }
        }
      }
      JOINT RightUpperArm
      {
        OFFSET -8.00 14.00 0.00
        CHANNELS 3 Zrotation Xrotation Yrotation
        JOINT RightForearm
        {
          OFFSET 0.00 -26.00 0.00
          CHANNELS 3 Zrotation Xrotation Yrotation
          JOINT RightHand
          {
            OFFSET 0.00 -24.00 0.00
            CHANNELS 3 Zrotation Xrotation Yrotation
            End Site
            {
              OFFSET 0.00 -8.00 0.00
            }
          }
        }
      }
    }
  }
  JOINT LeftThigh
  {
    OFFSET 9.00 0.00 0.00
    CHANNELS 3 Zrotation Xrotation Yrotation
    JOINT LeftShin
    {
      OFFSET 0.00 -42.00 0.00
      CHANNELS 3 Zrotation Xrotation Yrotation
      JOINT LeftFoot
      {
        OFFSET 0.00 -40.00 0.00
        CHANNELS 3 Zrotation Xrotation Yrotation
        End Site
        {
          OFFSET 0.00 -6.00 0.00
        }
      }
    }
  }
  JOINT RightThigh
  {
    OFFSET -9.00 0.00 0.00
    CHANNELS 3 Zrotation Xrotation Yrotation
    JOINT RightShin
    {
      OFFSET 0.00 -42.00 0.00
      CHANNELS 3 Zrotation Xrotation Yrotation
      JOINT RightFoot
      {
        OFFSET 0.00 -40.00 0.00
        CHANNELS 3 Zrotation Xrotation Yrotation
        End Site
        {
          OFFSET 0.00 -6.00 0.00
        }
      }
    }
  }
}

MOTION
Frames: 27
Frame Time: 0.033333
0.0000 78.0000 0.0000 0.0000 0.0000 0.0000 0.0000 8.0000 0.0000 0.0000 2.0000 0.0000 0.0000 0.0000 0.0000 0.0000 0.0000 0.0000 0.0000 -45.0000 0.0000 0.0000 -15.0000 0.0000 0.0000 0.0000 0.0000 0.0000 -45.0000 0.0000 0.0000 -15.0000 0.0000 0.0000 0.0000 0.0000 0.0000 -30.8619 0.0000 0.0000 56.8777 0.0000 0.0000 -26.0158 0.0000 0.0000 -30.8619 0.0000 0.0000 56.8777 0.0000 0.0000 -26.0158 0.0000
0.0000 78.0000 0.0000 0.0000 0.0000 0.0000 0.0000 8.0000 0.0000 0.0000 2.0000 0.0000 0.0000 0.0000 0.0000 0.0000 0.0000 0.0000 0.0000 -45.0000 0.0000 0.0000 -15.0000 0.0000 0.0000 0.0000 0.0000 0.0000 -45.0000 0.0000 0.0000 -15.0000 0.0000 0.0000 0.0000 0.0000 0.0000 -30.8619 0.0000 0.0000 56.8777 0.0000 0.0000 -26.0158 0.0000 0.0000 -30.8619 0.0000 0.0000 56.8777 0.0000 0.0000 -26.0158 0.0000
0.0000 78.0000 0.0000 0.0000 0.0000 0.0000 0.0000 8.0000 0.0000 0.0000 2.0000 0.0000 0.0000 0.0000 0.0000 0.0000 0.0000 0.0000 0.0000 -45.0000 0.0000 0.0000 -15.0000 0.0000 0.0000 0.0000 0.0000 0.0000 -45.0000 0.0000 0.0000 -15.0000 0.0000 0.0000 0.0000 0.0000 0.0000 -30.8619 0.0000 0.0000 56.8777 0.0000 0.0000 -26.0158 0.0000 0.0000 -30.8619 0.0000 0.0000 56.8777 0.0000 0.0000 -26.0158 0.0000
0.0000 78.0000 0.0000 0.0000 0.0000 0.0000 0.0000 8.0000 0.0000 0.0000 2.0000 0.0000 0.0000 0.0000 0.0000 0.0000 0.0000 0.0000 0.0000 -45.0000 0.0000 0.0000 -15.0000 0.0000 0.0000 0.0000 0.0000 0.0000 -45.0000 0.0000 0.0000 -15.0000 0.0000 0.0000 0.0000 0.0000 0.0000 -30.8619 0.0000 0.0000 56.8777 0.0000 0.0000 -26.0158 0.0000 0.0000 -30.8619 0.0000 0.0000 56.8777 0.0000 0.0000 -26.0158 0.0000
0.0000 78.0000 0.0000 0.0000 0.0000 0.0000 0.0000 8.0000 0.0000 0.0000 2.0000 0.0000 0.0000 0.0000 0.0000 0.0000 0.0000 0.0000 0.0000 -45.0000 0.0000 0.0000 -15.0000 0.0000 0.0000 0.0000 0.0000 0.0000 -45.0000 0.0000 0.0000 -15.0000 0.0000 0.0000 0.0000 0.0000 0.0000 -30.8619 0.0000 0.0000 56.8777 0.0000 0.0000 -26.0158 0.0000 0.0000 -30.8619 0.0000 0.0000 56.8777 0.0000 0.0000 -26.0158 0.0000
0.0000 78.0000 0.0000 0.0000 0.0000 0.0000 0.0000 8.0000 0.0000 0.0000 2.0000 0.0000 0.0000 0.0000 0.0000 0.0000 0.0000 0.0000 0.0000 -45.0000 0.0000 0.0000 -15.0000 0.0000 0.0000 0.0000 0.0000 0.0000 -45.0000 0.0000 0.0000 -15.0000 0.0000 0.0000 0.0000 0.0000 0.0000 -30.8619 0.0000 0.0000 56.8777 0.0000 0.0000 -26.0158 0.0000 0.0000 -30.8619 0.0000 0.0000 56.8777 0.0000 0.0000 -26.0158 0.0000
0.0000 78.0000 0.0000 0.0000 0.0000 0.0000 0.0000 8.0000 0.0000 0.0000 2.0000 0.0000 0.0000 0.0000 0.0000 0.0000 0.0000 0.0000 0.0000 -45.0000 0.0000 0.0000 -15.0000 0.0000 0.0000 0.0000 0.0000 0.0000 -45.0000 0.0000 0.0000 -15.0000 0.0000 0.0000 0.0000 0.0000 0.0000 -30.8619 0.0000 0.0000 56.8777 0.0000 0.0000 -26.0158 0.0000 0.0000 -30.8619 0.0000 0.0000 56.8777 0.0000 0.0000 -26.0158 0.0000
0.0000 78.0000 0.0000 0.0000 0.0000 0.0000 0.0000 8.0000 0.0000 0.0000 2.0000 0.0000 0.0000 0.0000 0.0000 0.0000 0.0000 0.0000 0.0000 -45.0000 0.0000 0.0000 -15.0000 0.0000 0.0000 0.0000 0.0000 0.0000 -45.0000 0.0000 0.0000 -15.0000 0.0000 0.0000 0.0000 0.0000 0.0000 -30.8619 0.0000 0.0000 56.8777 0.0000 0.0000 -26.0158 0.0000 0.0000 -30.8619 0.0000 0.0000 56.8777 0.0000 0.0000 -26.0158 0.0000
0.0000 78.0000 0.0000 0.0000 0.0000 0.0000 0.0000 8.0000 0.0000 0.0000 2.0000 0.0000 0.0000 0.0000 0.0000 0.0000 0.0000 0.0000 0.0000 -45.0000 0.0000 0.0000 -15.0000 0.0000 0.0000 0.0000 0.0000 0.0000 -45.0000 0.0000 0.0000 -15.0000 0.0000 0.0000 0.0000 0.0000 0.0000 -30.8619 0.0000 0.0000 56.8777 0.0000 0.0000 -26.0158 0.0000 0.0000 -30.8619 0.0000 0.0000 56.8777 0.0000 0.0000 -26.0158 0.0000
0.0000 78.0000 0.0000 0.0000 0.0000 0.0000 0.0000 8.0000 0.0000 0.0000 2.0000 0.0000 0.0000 0.0000 0.0000 0.0000 0.0000 0.0000 0.0000 -45.0000 0.0000 0.0000 -15.0000 0.0000 0.0000 0.0000 0.0000 0.0000 -45.0000 0.0000 0.0000 -15.0000 0.0000 0.0000 0.0000 0.0000 0.0000 -30.8619 0.0000 0.0000 56.8777 0.0000 0.0000 -26.0158 0.0000 0.0000 -30.8619 0.0000 0.0000 56.8777 0.0000 0.0000 -26.0158 0.0000
0.0000 75.9103 0.0000 0.0000 0.0000 0.0000 0.0000 8.0000 0.0000 0.0000 2.0000 0.0000 0.0000 0.0000 0.0000 0.0000 0.0000 0.0000 0.0000 -45.0000 0.0000 0.0000 -15.0000 0.0000 0.0000 0.0000 0.0000 0.0000 -45.0000 0.0000 0.0000 -15.0000 0.0000 0.0000 0.0000 0.0000 0.0000 -33.7883 0.0000 0.0000 62.7309 0.0000 0.0000 -28.9426 0.0000 0.0000 -33.7883 0.0000 0.0000 62.7309 0.0000 0.0000 -28.9426 0.0000
0.0000 73.8489 0.0000 0.0000 0.0000 0.0000 0.0000 8.0000 0.0000 0.0000 2.0000 0.0000 0.0000 0.0000 0.0000 0.0000 0.0000 0.0000 0.0000 -45.0000 0.0000 0.0000 -15.0000 0.0000 0.0000 0.0000 0.0000 0.0000 -45.0000 0.0000 0.0000 -15.0000 0.0000 0.0000 0.0000 0.0000 0.0000 -36.4598 0.0000 0.0000 68.0589 0.0000 0.0000 -31.5991 0.0000 0.0000 -36.4598 0.0000 0.0000 68.0589 0.0000 0.0000 -31.5991 0.0000
0.0000 71.8436 0.0000 0.0000 0.0000 0.0000 0.0000 8.0000 0.0000 0.0000 2.0000 0.0000 0.0000 0.0000 0.0000 0.0000 0.0000 0.0000 0.0000 -45.0000 0.0000 0.0000 -15.0000 0.0000 0.0000 0.0000 0.0000 0.0000 -45.0000 0.0000 0.0000 -15.0000 0.0000 0.0000 0.0000 0.0000 0.0000 -38.8995 0.0000 0.0000 72.9105 0.0000 0.0000 -34.0111 0.0000 0.0000 -38.8995 0.0000 0.0000 72.9105 0.0000 0.0000 -34.0111 0.0000
0.0000 69.9216 0.0000 0.0000 0.0000 0.0000 0.0000 8.0000 0.0000 0.0000 2.0000 0.0000 0.0000 0.0000 0.0000 0.0000 0.0000 0.0000 0.0000 -45.0000 0.0000 0.0000 -15.0000 0.0000 0.0000 0.0000 0.0000 0.0000 -45.0000 0.0000 0.0000 -15.0000 0.0000 0.0000 0.0000 0.0000 0.0000 -41.1192 0.0000 0.0000 77.3124 0.0000 0.0000 -36.1932 0.0000 0.0000 -41.1192 0.0000 0.0000 77.3124 0.0000 0.0000 -36.1932 0.0000
0.0000 68.1088 0.0000 0.0000 0.0000 0.0000 0.0000 8.0000 0.0000 0.0000 2.0000 0.0000 0.0000 0.0000 0.0000 0.0000 0.0000 0.0000 0.0000 -45.0000 0.0000 0.0000 -15.0000 0.0000 0.0000 0.0000 0.0000 0.0000 -45.0000 0.0000 0.0000 -15.0000 0.0000 0.0000 0.0000 0.0000 0.0000 -43.1247 0.0000 0.0000 81.2781 0.0000 0.0000 -38.1533 0.0000 0.0000 -43.1247 0.0000 0.0000 81.2781 0.0000 0.0000 -38.1533 0.0000
0.0000 66.4298 0.0000 0.0000 0.0000 0.0000 0.0000 8.0000 0.0000 0.0000 2.0000 0.0000 0.0000 0.0000 0.0000 0.0000 0.0000 0.0000 0.0000 -45.0000 0.0000 0.0000 -15.0000 0.0000 0.0000 0.0000 0.0000 0.0000 -45.0000 0.0000 0.0000 -15.0000 0.0000 0.0000 0.0000 0.0000 0.0000 -44.9174 0.0000 0.0000 84.8130 0.0000 0.0000 -39.8956 0.0000 0.0000 -44.9174 0.0000 0.0000 84.8130 0.0000 0.0000 -39.8956 0.0000
0.0000 64.9073 0.0000 0.0000 0.0000 0.0000 0.0000 8.0000 0.0000 0.0000 2.0000 0.0000 0.0000 0.0000 0.0000 0.0000 0.0000 0.0000 0.0000 -45.0000 0.0000 0.0000 -15.0000 0.0000 0.0000 0.0000 0.0000 0.0000 -45.0000 0.0000 0.0000 -15.0000 0.0000 0.0000 0.0000 0.0000 0.0000 -46.4963 0.0000 0.0000 87.9180 0.0000 0.0000 -41.4217 0.0000 0.0000 -46.4963 0.0000 0.0000 87.9180 0.0000 0.0000 -41.4217 0.0000
0.0000 63.5618 0.0000 0.0000 0.0000 0.0000 0.0000 8.0000 0.0000 0.0000 2.0000 0.0000 0.0000 0.0000 0.0000 0.0000 0.0000 0.0000 0.0000 -45.0000 0.0000 0.0000 -15.0000 0.0000 0.0000 0.0000 0.0000 0.0000 -45.0000 0.0000 0.0000 -15.0000 0.0000 0.0000 0.0000 0.0000 0.0000 -47.8588 0.0000 0.0000 90.5907 0.0000 0.0000 -42.7319 0.0000 0.0000 -47.8588 0.0000 0.0000 90.5907 0.0000 0.0000 -42.7319 0.0000
0.0000 62.4115 0.0000 0.0000 0.0000 0.0000 0.0000 8.0000 0.0000 0.0000 2.0000 0.0000 0.0000 0.0000 0.0000 0.0000 0.0000 0.0000 0.0000 -45.0000 0.0000 0.0000 -15.0000 0.0000 0.0000 0.0000 0.0000 0.0000 -45.0000 0.0000 0.0000 -15.0000 0.0000 0.0000 0.0000 0.0000 0.0000 -49.0017 0.0000 0.0000 92.8274 0.0000 0.0000 -43.8256 0.0000 0.0000 -49.0017 0.0000 0.0000 92.8274 0.0000 0.0000 -43.8256 0.0000
0.0000 61.4721 0.0000 0.0000 0.0000 0.0000 0.0000 8.0000 0.0000 0.0000 2.0000 0.0000 0.0000 0.0000 0.0000 0.0000 0.0000 0.0000 0.0000 -45.0000 0.0000 0.0000 -15.0000 0.0000 0.0000 0.0000 0.0000 0.0000 -45.0000 0.0000 0.0000 -15.0000 0.0000 0.0000 0.0000 0.0000 0.0000 -49.9215 0.0000 0.0000 94.6236 0.0000 0.0000 -44.7021 0.0000 0.0000 -49.9215 0.0000 0.0000 94.6236 0.0000 0.0000 -44.7021 0.0000
0.0000 60.7562 0.0000 0.0000 0.0000 0.0000 0.0000 8.0000 0.0000 0.0000 2.0000 0.0000 0.0000 0.0000 0.0000 0.0000 0.0000 0.0000 0.0000 -45.0000 0.0000 0.0000 -15.0000 0.0000 0.0000 0.0000 0.0000 0.0000 -45.0000 0.0000 0.0000 -15.0000 0.0000 0.0000 0.0000 0.0000 0.0000 -50.6146 0.0000 0.0000 95.9750 0.0000 0.0000 -45.3604 0.0000 0.0000 -50.6146 0.0000 0.0000 95.9750 0.0000 0.0000 -45.3604 0.0000
0.0000 60.2735 0.0000 0.0000 0.0000 0.0000 0.0000 8.0000 0.0000 0.0000 2.0000 0.0000 0.0000 0.0000 0.0000 0.0000 0.0000 0.0000 0.0000 -45.0000 0.0000 0.0000 -15.0000 0.0000 0.0000 0.0000 0.0000 0.0000 -45.0000 0.0000 0.0000 -15.0000 0.0000 0.0000 0.0000 0.0000 0.0000 -51.0785 0.0000 0.0000 96.8782 0.0000 0.0000 -45.7997 0.0000 0.0000 -51.0785 0.0000 0.0000 96.8782 0.0000 0.0000 -45.7997 0.0000
0.0000 60.0305 0.0000 0.0000 0.0000 0.0000 0.0000 8.0000 0.0000 0.0000 2.0000 0.0000 0.0000 0.0000 0.0000 0.0000 0.0000 0.0000 0.0000 -45.0000 0.0000 0.0000 -15.0000 0.0000 0.0000 0.0000 0.0000 0.0000 -45.0000 0.0000 0.0000 -15.0000 0.0000 0.0000 0.0000 0.0000 0.0000 -51.3109 0.0000 0.0000 97.3305 0.0000 0.0000 -46.0196 0.0000 0.0000 -51.3109 0.0000 0.0000 97.3305 0.0000 0.0000 -46.0196 0.0000
0.0000 62.5000 0.5556 0.0000 0.0000 0.0000 0.0000 0.0000 0.0000 0.0000 2.0000 0.0000 0.0000 0.0000 0.0000 0.0000 0.0000 0.0000 0.0000 -10.0000 0.0000 0.0000 -15.0000 0.0000 0.0000 0.0000 0.0000 0.0000 -10.0000 0.0000 0.0000 -15.0000 0.0000 0.0000 0.0000 0.0000 0.0000 -48.9145 0.0000 0.0000 92.6569 0.0000 0.0000 -43.7423 0.0000 0.0000 -48.9145 0.0000 0.0000 92.6569 0.0000 0.0000 -43.7423 0.0000
0.0000 67.5000 1.6667 0.0000 0.0000 0.0000 0.0000 0.0000 0.0000 0.0000 2.0000 0.0000 0.0000 0.0000 0.0000 0.0000 0.0000 0.0000 0.0000 -10.0000 0.0000 0.0000 -15.0000 0.0000 0.0000 0.0000 0.0000 0.0000 -10.0000 0.0000 0.0000 -15.0000 0.0000 0.0000 0.0000 0.0000 0.0000 -43.7815 0.0000 0.0000 82.5743 0.0000 0.0000 -38.7928 0.0000 0.0000 -43.7815 0.0000 0.0000 82.5743 0.0000 0.0000 -38.7928 0.0000
0.0000 72.5000 2.7778 0.0000 0.0000 0.0000 0.0000 0.0000 0.0000 0.0000 2.0000 0.0000 0.0000 0.0000 0.0000 0.0000 0.0000 0.0000 0.0000 -10.0000 0.0000 0.0000 -15.0000 0.0000 0.0000 0.0000 0.0000 0.0000 -10.0000 0.0000 0.0000 -15.0000 0.0000 0.0000 0.0000 0.0000 0.0000 -38.1161 0.0000 0.0000 71.3542 0.0000 0.0000 -33.2381 0.0000 0.0000 -38.1161 0.0000 0.0000 71.3542 0.0000 0.0000 -33.2381 0.0000
0.0000 77.5000 3.8889 0.0000 0.0000 0.0000 0.0000 0.0000 0.0000 0.0000 2.0000 0.0000 0.0000 0.0000 0.0000 0.0000 0.0000 0.0000 0.0000 -10.0000 0.0000 0.0000 -15.0000 0.0000 0.0000 0.0000 0.0000 0.0000 -10.0000 0.0000 0.0000 -15.0000 0.0000 0.0000 0.0000 0.0000 0.0000 -31.5856 0.0000 0.0000 58.3267 0.0000 0.0000 -26.7411 0.0000 0.0000 -31.5856 0.0000 0.0000 58.3267 0.0000 0.0000 -26.7411 0.0000
